<?xml version="1.0" standalone="no"?>
<!DOCTYPE svg PUBLIC "-//W3C//DTD SVG 20010904//EN"
 "http://www.w3.org/TR/2001/REC-SVG-20010904/DTD/svg10.dtd">
<svg version="1.0" xmlns="http://www.w3.org/2000/svg"
 width="1200.000000pt" height="400.000000pt" viewBox="0 0 1200.000000 400.000000"
 preserveAspectRatio="xMidYMid meet">

<g transform="translate(0.000000,400.000000) scale(0.100000,-0.100000)"
fill="#000000" stroke="none">
<path d="M847 3633 c-4 -3 -7 -11 -7 -17 0 -6 4 -5 9 3 8 12 12 13 25 1 14
-11 16 -10 10 4 -6 16 -25 21 -37 9z"/>
<path d="M1216 3623 c-5 -12 -4 -13 7 -5 9 8 17 8 24 1 7 -7 13 -6 21 3 8 10
4 13 -18 15 -18 1 -30 -4 -34 -14z"/>
<path d="M2497 3633 c-4 -3 -7 -11 -7 -17 0 -6 4 -5 9 3 8 12 12 13 25 1 14
-11 16 -10 10 4 -6 16 -25 21 -37 9z"/>
<path d="M2770 3625 c7 -9 15 -13 17 -11 7 7 -7 26 -19 26 -6 0 -6 -6 2 -15z"/>
<path d="M3060 3632 c0 -18 33 -23 49 -7 9 9 11 15 4 15 -7 0 -15 -5 -18 -10
-5 -8 -11 -7 -21 1 -8 7 -14 7 -14 1z"/>
<path d="M3460 3624 c0 -8 5 -12 10 -9 6 3 10 10 10 16 0 5 -4 9 -10 9 -5 0
-10 -7 -10 -16z"/>
<path d="M621 3563 c1 -38 4 -56 6 -40 3 21 10 27 28 27 20 0 45 24 45 44 0
14 -34 36 -56 36 -23 0 -24 -2 -23 -67z m53 34 c8 -13 7 -20 -4 -27 -25 -16
-40 -11 -40 13 0 41 23 48 44 14z"/>
<path d="M723 3565 c0 -54 1 -61 6 -30 5 31 11 41 28 43 19 3 22 -2 26 -40 4
-40 4 -39 3 7 -1 48 -2 50 -28 48 -20 -1 -28 4 -31 20 -2 12 -4 -9 -4 -48z"/>
<path d="M1101 3568 l-1 -68 30 0 c37 0 55 35 40 76 -8 21 -15 25 -34 20 -20
-5 -25 -2 -29 16 -2 13 -5 -7 -6 -44z m57 -19 c2 -17 -3 -29 -13 -33 -25 -9
-35 1 -35 35 0 26 3 30 23 27 15 -2 23 -11 25 -29z"/>
<path d="M1370 3615 c-17 -21 -2 -49 28 -53 32 -5 46 -27 27 -42 -12 -10 -21
-10 -41 -1 -20 9 -25 9 -22 -1 6 -17 56 -22 74 -7 25 21 16 47 -21 59 -37 12
-46 34 -19 44 8 3 25 1 36 -5 16 -9 19 -8 16 3 -7 20 -62 22 -78 3z"/>
<path d="M1970 3565 c0 -37 4 -65 10 -65 6 0 10 18 10 40 0 33 3 40 20 40 12
0 21 -8 24 -22 3 -13 7 -32 9 -43 3 -11 5 -1 6 21 1 45 -18 70 -44 60 -10 -4
-15 1 -15 14 0 11 -4 20 -10 20 -6 0 -10 -28 -10 -65z"/>
<path d="M2350 3606 c0 -13 -6 -27 -12 -30 -10 -5 -10 -7 0 -12 6 -3 12 -19
12 -35 0 -24 4 -29 26 -29 55 0 87 46 63 93 -16 29 -28 37 -61 37 -23 0 -28
-4 -28 -24z m68 -9 c6 -5 12 -20 12 -32 0 -43 -62 -68 -68 -27 -2 15 2 22 12
22 9 0 16 5 16 10 0 6 -7 10 -15 10 -15 0 -21 21 -9 33 7 6 33 -1 52 -16z"/>
<path d="M2700 3616 c0 -7 -13 -16 -30 -19 -58 -12 -49 -99 10 -95 30 2 30 3
30 65 0 35 -2 63 -5 63 -3 0 -5 -6 -5 -14z m0 -65 c0 -28 -22 -47 -41 -35 -10
6 -12 47 -2 57 3 4 15 7 25 7 13 0 18 -8 18 -29z"/>
<path d="M3320 3565 c0 -65 0 -65 28 -65 35 0 52 16 52 51 0 31 -23 54 -45 45
-10 -4 -15 1 -15 14 0 11 -4 20 -10 20 -6 0 -10 -28 -10 -65z m67 -1 c8 -20
-8 -48 -31 -52 -12 -3 -16 4 -16 32 0 30 4 36 20 36 11 0 23 -7 27 -16z"/>
<path d="M1908 3609 c-3 -7 -2 -34 1 -59 5 -35 11 -45 26 -48 18 -2 18 -2 3 8
-23 14 -25 70 -3 70 8 0 15 5 15 10 0 6 -6 10 -14 10 -8 0 -16 5 -18 12 -3 8
-6 7 -10 -3z"/>
<path d="M830 3590 c0 -5 11 -10 25 -10 34 0 32 -18 -2 -22 -22 -2 -28 -8 -28
-28 0 -22 5 -25 38 -27 36 -1 37 0 37 36 0 20 -5 42 -12 49 -15 15 -58 16 -58
2z m50 -55 c0 -16 -27 -32 -37 -22 -3 4 -3 13 0 22 8 20 37 20 37 0z"/>
<path d="M931 3545 l2 -50 6 40 c5 31 11 41 28 43 19 3 22 -2 26 -40 4 -40 4
-39 3 7 -1 49 -1 50 -33 50 l-33 1 1 -51z"/>
<path d="M1211 3586 c-7 -8 -11 -30 -9 -48 2 -26 8 -34 27 -36 43 -7 67 50 35
82 -19 20 -38 20 -53 2z m47 -40 c-2 -23 -8 -31 -23 -31 -23 0 -33 38 -15 60
19 23 41 6 38 -29z"/>
<path d="M1492 3588 c-7 -7 -12 -27 -12 -45 0 -27 5 -34 26 -39 14 -4 30 -2
37 5 9 9 6 11 -12 9 -27 -3 -47 21 -38 46 4 9 18 16 32 16 15 0 24 4 20 10 -8
14 -38 13 -53 -2z"/>
<path d="M1576 3584 c-30 -30 -11 -84 30 -84 34 0 51 43 29 76 -18 28 -37 30
-59 8z m52 -43 c-4 -38 -42 -36 -46 3 -2 16 2 32 9 37 20 12 40 -11 37 -40z"/>
<path d="M1674 3591 c-9 -9 -3 -91 6 -91 6 0 10 16 10 36 0 27 5 37 20 41 11
3 20 8 20 12 0 7 -49 9 -56 2z"/>
<path d="M1756 3584 c-19 -18 -21 -55 -4 -72 14 -14 54 -16 63 -3 3 6 -7 9
-22 8 -19 -1 -28 3 -31 16 -3 13 3 17 27 17 32 0 41 16 19 38 -16 16 -33 15
-52 -4z m35 -22 c-28 -4 -40 6 -21 18 9 6 20 4 29 -3 12 -10 11 -13 -8 -15z"/>
<path d="M2092 3588 c-18 -18 -15 -75 4 -82 24 -9 52 -7 60 5 4 8 -1 9 -15 4
-22 -7 -51 9 -51 26 0 5 16 9 35 9 38 0 40 2 25 31 -12 21 -40 25 -58 7z m48
-18 c0 -5 -12 -10 -26 -10 -14 0 -23 4 -19 10 3 6 15 10 26 10 10 0 19 -4 19
-10z"/>
<path d="M2191 3586 c-7 -8 -11 -30 -9 -48 2 -26 8 -34 27 -36 43 -7 67 50 35
82 -19 20 -38 20 -53 2z m47 -40 c-2 -23 -8 -31 -23 -31 -23 0 -33 38 -15 60
19 23 41 6 38 -29z"/>
<path d="M2485 3584 c-34 -35 3 -103 43 -78 33 21 23 94 -14 94 -7 0 -20 -7
-29 -16z m55 -34 c0 -10 -7 -24 -16 -31 -14 -11 -18 -10 -30 6 -18 24 -18 30
2 50 19 18 44 4 44 -25z"/>
<path d="M2750 3590 c0 -5 11 -10 25 -10 34 0 32 -18 -2 -22 -22 -2 -28 -8
-28 -28 0 -22 5 -25 38 -27 36 -1 37 0 37 36 0 20 -5 42 -12 49 -15 15 -58 16
-58 2z m50 -55 c0 -16 -27 -32 -37 -22 -3 4 -3 13 0 22 8 20 37 20 37 0z"/>
<path d="M2853 3550 c0 -30 2 -43 4 -27 2 15 2 39 0 55 -2 15 -4 2 -4 -28z"/>
<path d="M2955 3578 c8 -40 23 -78 33 -78 9 0 44 91 38 98 -3 2 -12 -13 -21
-34 l-17 -39 -19 40 c-15 30 -18 33 -14 13z"/>
<path d="M3060 3590 c0 -5 11 -10 25 -10 34 0 32 -18 -2 -22 -22 -2 -28 -8
-28 -28 0 -21 5 -25 33 -26 31 -1 32 0 32 41 0 30 -5 45 -16 49 -24 9 -44 7
-44 -4z m50 -54 c0 -18 -30 -30 -43 -17 -5 5 -6 14 -3 20 10 16 46 13 46 -3z"/>
<path d="M3161 3545 l2 -50 6 40 c5 31 10 40 26 40 16 0 21 -9 26 -40 7 -38 7
-38 5 10 -1 49 -1 50 -33 50 l-33 1 1 -51z"/>
<path d="M3435 3590 c-4 -6 5 -10 19 -10 32 0 34 -17 4 -22 -17 -2 -23 -10
-23 -28 0 -21 5 -25 33 -26 31 -1 32 0 32 41 0 30 -5 45 -16 49 -23 9 -42 7
-49 -4z m55 -54 c0 -18 -30 -30 -43 -17 -5 5 -6 14 -3 20 10 16 46 13 46 -3z"/>
<path d="M3530 3548 c0 -27 5 -48 10 -48 6 0 10 18 10 40 0 33 3 40 20 40 17
0 20 -7 20 -40 0 -22 5 -40 10 -40 14 0 12 76 -2 88 -7 6 -25 10 -40 9 -26 -2
-28 -5 -28 -49z"/>
<path d="M1441 3162 c-22 -41 -8 -132 20 -132 6 0 3 10 -5 22 -19 26 -21 71
-5 100 6 11 8 22 6 25 -3 2 -10 -4 -16 -15z"/>
<path d="M1511 3171 c-14 -9 -19 -80 -7 -100 9 -15 39 -14 54 1 7 7 12 28 12
48 0 51 -25 72 -59 51z m37 -13 c14 -14 16 -57 3 -77 -17 -26 -41 -4 -41 37 0
51 13 65 38 40z"/>
<path d="M1671 3171 c-14 -9 -19 -80 -7 -100 9 -15 39 -14 54 1 7 7 12 28 12
48 0 51 -25 72 -59 51z m37 -13 c14 -14 16 -57 3 -77 -17 -26 -41 -4 -41 37 0
51 13 65 38 40z"/>
<path d="M1880 3151 c0 -23 5 -30 23 -33 14 -2 22 -10 22 -23 0 -16 -6 -20
-28 -18 -15 1 -25 -2 -22 -8 11 -17 54 -10 65 12 14 24 -2 49 -31 49 -11 0
-19 7 -19 15 0 9 9 15 25 15 14 0 25 5 25 10 0 6 -13 10 -30 10 -27 0 -30 -3
-30 -29z"/>
<path d="M1980 3161 c-31 -59 16 -131 58 -89 28 28 7 108 -28 108 -11 0 -24
-9 -30 -19z m52 -16 c8 -19 8 -31 -1 -51 -15 -34 -35 -26 -39 15 -6 61 19 83
40 36z"/>
<path d="M2091 3171 c-14 -9 -19 -80 -7 -100 9 -15 39 -14 54 1 7 7 12 28 12
48 0 51 -25 72 -59 51z m37 -13 c14 -14 16 -57 3 -77 -17 -26 -41 -4 -41 37 0
51 13 65 38 40z"/>
<path d="M2251 3171 c-14 -9 -19 -80 -7 -100 9 -15 39 -14 54 1 7 7 12 28 12
48 0 51 -25 72 -59 51z m37 -13 c14 -14 16 -57 3 -77 -17 -26 -41 -4 -41 37 0
51 13 65 38 40z"/>
<path d="M2348 3173 c8 -3 12 -27 12 -68 0 -41 -4 -65 -12 -68 -7 -3 -3 -6 10
-6 21 -1 22 3 22 74 0 71 -1 75 -22 74 -13 0 -17 -3 -10 -6z"/>
<path d="M3971 3162 c-22 -41 -8 -132 20 -132 6 0 3 10 -5 22 -19 26 -21 71
-5 100 6 11 8 22 6 25 -3 2 -10 -4 -16 -15z"/>
<path d="M4051 3167 c-9 -11 -10 -17 -2 -17 15 0 14 -77 -1 -83 -7 -3 3 -5 22
-5 19 0 27 2 18 5 -13 3 -18 18 -20 60 -3 49 -5 54 -17 40z"/>
<path d="M4141 3166 c-17 -20 -10 -87 10 -99 9 -6 24 -7 33 -4 23 9 23 102 0
111 -23 9 -30 8 -43 -8z m49 -53 c0 -36 -25 -57 -41 -32 -13 20 -11 63 3 77
18 18 38 -5 38 -45z"/>
<path d="M4241 3166 c-17 -20 -10 -87 10 -99 9 -6 24 -7 33 -4 23 9 23 102 0
111 -23 9 -30 8 -43 -8z m49 -53 c0 -36 -25 -57 -41 -32 -13 20 -11 63 3 77
18 18 38 -5 38 -45z"/>
<path d="M4342 3168 c-17 -17 -15 -83 3 -98 37 -31 78 23 59 78 -10 30 -42 40
-62 20z m43 -48 c0 -50 -19 -64 -36 -26 -9 20 -9 32 0 52 17 38 36 24 36 -26z"/>
<path d="M4502 3168 c-17 -17 -15 -83 3 -98 37 -31 78 23 59 78 -10 30 -42 40
-62 20z m43 -48 c0 -50 -19 -64 -36 -26 -9 20 -9 32 0 52 17 38 36 24 36 -26z"/>
<path d="M4732 3164 c-7 -8 -8 -14 -2 -14 15 0 13 -77 -2 -83 -7 -3 2 -6 21
-6 30 -1 33 1 18 12 -10 7 -17 30 -19 58 -2 39 -5 44 -16 33z"/>
<path d="M4820 3151 c0 -23 5 -30 23 -33 35 -5 30 -43 -5 -43 -16 1 -28 -3
-28 -8 0 -4 15 -7 33 -5 28 3 32 6 32 33 0 23 -5 31 -22 33 -32 5 -30 32 2 32
14 0 25 5 25 10 0 6 -13 10 -30 10 -27 0 -30 -3 -30 -29z"/>
<path d="M4922 3168 c-17 -17 -15 -83 3 -98 37 -31 78 23 59 78 -10 30 -42 40
-62 20z m43 -48 c0 -50 -19 -64 -36 -26 -9 20 -9 32 0 52 17 38 36 24 36 -26z"/>
<path d="M5020 3161 c-31 -59 16 -131 58 -89 28 28 7 108 -28 108 -11 0 -24
-9 -30 -19z m52 -16 c8 -19 8 -31 -1 -51 -15 -34 -35 -26 -39 15 -6 61 19 83
40 36z"/>
<path d="M5180 3161 c-31 -59 16 -131 58 -89 28 28 7 108 -28 108 -11 0 -24
-9 -30 -19z m52 -16 c8 -19 8 -31 -1 -51 -15 -34 -35 -26 -39 15 -6 61 19 83
40 36z"/>
<path d="M5283 3173 c14 -4 17 -16 17 -68 0 -52 -3 -64 -17 -68 -14 -4 -12 -5
5 -6 21 -1 22 3 22 74 0 71 -1 75 -22 74 -17 -1 -19 -2 -5 -6z"/>
<path d="M6701 3162 c-22 -41 -8 -132 20 -132 6 0 3 10 -5 22 -19 26 -21 71
-5 100 6 11 8 22 6 25 -3 2 -10 -4 -16 -15z"/>
<path d="M6781 3167 c-9 -11 -10 -17 -2 -17 15 0 14 -77 -1 -83 -7 -3 3 -5 22
-5 19 0 27 2 18 5 -13 3 -18 18 -20 60 -3 49 -5 54 -17 40z"/>
<path d="M6870 3151 c0 -23 5 -30 23 -33 35 -5 30 -43 -5 -43 -16 1 -28 -3
-28 -8 0 -4 15 -7 33 -5 28 3 32 6 32 33 0 23 -5 31 -22 33 -32 5 -30 32 2 32
14 0 25 5 25 10 0 6 -13 10 -30 10 -27 0 -30 -3 -30 -29z"/>
<path d="M6971 3166 c-17 -20 -10 -87 10 -99 9 -6 24 -7 33 -4 23 9 23 102 0
111 -23 9 -30 8 -43 -8z m49 -53 c0 -36 -25 -57 -41 -32 -13 20 -11 63 3 77
18 18 38 -5 38 -45z"/>
<path d="M7072 3168 c-17 -17 -15 -83 3 -98 37 -31 78 23 59 78 -10 30 -42 40
-62 20z m43 -48 c0 -50 -19 -64 -36 -26 -9 20 -9 32 0 52 17 38 36 24 36 -26z"/>
<path d="M7232 3168 c-17 -17 -15 -83 3 -98 37 -31 78 23 59 78 -10 30 -42 40
-62 20z m43 -48 c0 -50 -19 -64 -36 -26 -9 20 -9 32 0 52 17 38 36 24 36 -26z"/>
<path d="M7444 3169 c-4 -7 0 -9 13 -5 12 4 25 1 32 -8 10 -11 6 -21 -19 -49
-16 -19 -30 -37 -30 -41 0 -3 19 -5 43 -4 37 1 38 2 9 5 l-33 4 26 30 c14 17
25 39 25 49 0 27 -51 42 -66 19z"/>
<path d="M7551 3166 c-17 -20 -10 -87 10 -99 9 -6 24 -7 33 -4 23 9 23 102 0
111 -23 9 -30 8 -43 -8z m49 -53 c0 -36 -25 -57 -41 -32 -13 20 -11 63 3 77
18 18 38 -5 38 -45z"/>
<path d="M7652 3168 c-17 -17 -15 -83 3 -98 37 -31 78 23 59 78 -10 30 -42 40
-62 20z m43 -48 c0 -50 -19 -64 -36 -26 -9 20 -9 32 0 52 17 38 36 24 36 -26z"/>
<path d="M7750 3161 c-31 -59 16 -131 58 -89 28 28 7 108 -28 108 -11 0 -24
-9 -30 -19z m52 -16 c8 -19 8 -31 -1 -51 -15 -34 -35 -26 -39 15 -6 61 19 83
40 36z"/>
<path d="M7910 3161 c-31 -59 16 -131 58 -89 28 28 7 108 -28 108 -11 0 -24
-9 -30 -19z m52 -16 c8 -19 8 -31 -1 -51 -15 -34 -35 -26 -39 15 -6 61 19 83
40 36z"/>
<path d="M8013 3173 c14 -4 17 -16 17 -68 0 -52 -3 -64 -17 -68 -14 -4 -12 -5
5 -6 21 -1 22 3 22 74 0 71 -1 75 -22 74 -17 -1 -19 -2 -5 -6z"/>
<path d="M9481 3162 c-22 -41 -8 -132 20 -132 6 0 3 10 -5 22 -19 26 -21 71
-5 100 6 11 8 22 6 25 -3 2 -10 -4 -16 -15z"/>
<path d="M9540 3150 c0 -25 4 -30 24 -30 14 0 28 -5 31 -10 10 -16 -16 -42
-37 -37 -10 3 -18 1 -18 -4 0 -15 46 -10 60 6 17 21 8 50 -18 53 -31 5 -28 32
3 32 14 0 25 5 25 10 0 6 -16 10 -35 10 -32 0 -35 -2 -35 -30z"/>
<path d="M9651 3166 c-17 -20 -10 -87 10 -99 9 -6 24 -7 33 -4 23 9 23 102 0
111 -23 9 -30 8 -43 -8z m49 -53 c0 -36 -25 -57 -41 -32 -13 20 -11 63 3 77
18 18 38 -5 38 -45z"/>
<path d="M9751 3166 c-17 -20 -10 -87 10 -99 9 -6 24 -7 33 -4 23 9 23 102 0
111 -23 9 -30 8 -43 -8z m49 -53 c0 -36 -25 -57 -41 -32 -13 20 -11 63 3 77
18 18 38 -5 38 -45z"/>
<path d="M9911 3166 c-17 -20 -10 -87 10 -99 9 -6 24 -7 33 -4 23 9 23 102 0
111 -23 9 -30 8 -43 -8z m49 -53 c0 -36 -25 -57 -41 -32 -13 20 -11 63 3 77
18 18 38 -5 38 -45z"/>
<path d="M10141 3167 c-9 -11 -10 -17 -2 -17 15 0 14 -77 -1 -83 -7 -3 3 -5
22 -5 19 0 27 2 18 5 -13 3 -18 18 -20 60 -3 49 -5 54 -17 40z"/>
<path d="M10231 3166 c-17 -20 -10 -87 10 -99 9 -6 24 -7 33 -4 23 9 23 102 0
111 -23 9 -30 8 -43 -8z m49 -53 c0 -36 -25 -57 -41 -32 -13 20 -11 63 3 77
18 18 38 -5 38 -45z"/>
<path d="M10331 3166 c-17 -20 -10 -87 10 -99 9 -6 24 -7 33 -4 23 9 23 102 0
111 -23 9 -30 8 -43 -8z m49 -53 c0 -36 -25 -57 -41 -32 -13 20 -11 63 3 77
18 18 38 -5 38 -45z"/>
<path d="M10432 3168 c-17 -17 -15 -83 3 -98 37 -31 78 23 59 78 -10 30 -42
40 -62 20z m43 -48 c0 -50 -19 -64 -36 -26 -9 20 -9 32 0 52 17 38 36 24 36
-26z"/>
<path d="M10592 3168 c-17 -17 -15 -83 3 -98 37 -31 78 23 59 78 -10 30 -42
40 -62 20z m43 -48 c0 -50 -19 -64 -36 -26 -9 20 -9 32 0 52 17 38 36 24 36
-26z"/>
<path d="M10693 3173 c14 -4 17 -16 17 -68 0 -52 -3 -64 -17 -68 -14 -4 -12
-5 5 -6 21 -1 22 3 22 74 0 71 -1 75 -22 74 -17 -1 -19 -2 -5 -6z"/>
<path d="M1765 3059 c-10 -30 0 -33 13 -4 6 14 7 25 2 25 -5 0 -12 -9 -15 -21z"/>
<path d="M4440 3070 c0 -5 5 -10 10 -10 6 0 10 5 10 10 0 6 -4 10 -10 10 -5 0
-10 -4 -10 -10z"/>
<path d="M4597 3053 c-5 -26 -4 -26 9 -8 16 22 18 35 5 35 -5 0 -11 -12 -14
-27z"/>
<path d="M5120 3070 c0 -5 5 -10 10 -10 6 0 10 5 10 10 0 6 -4 10 -10 10 -5 0
-10 -4 -10 -10z"/>
<path d="M7170 3070 c0 -5 5 -10 10 -10 6 0 10 5 10 10 0 6 -4 10 -10 10 -5 0
-10 -4 -10 -10z"/>
<path d="M7327 3053 c-5 -26 -4 -26 9 -8 16 22 18 35 5 35 -5 0 -11 -12 -14
-27z"/>
<path d="M7850 3070 c0 -5 5 -10 10 -10 6 0 10 5 10 10 0 6 -4 10 -10 10 -5 0
-10 -4 -10 -10z"/>
<path d="M10010 3071 c0 -5 -3 -17 -7 -27 -4 -11 -3 -15 4 -11 14 9 24 47 12
47 -5 0 -9 -4 -9 -9z"/>
<path d="M10530 3070 c0 -5 5 -10 10 -10 6 0 10 5 10 10 0 6 -4 10 -10 10 -5
0 -10 -4 -10 -10z"/>
<path d="M967 2963 c-15 -14 -6 -34 19 -43 31 -12 21 -34 -13 -27 -16 3 -21 1
-15 -5 5 -5 20 -8 33 -6 32 4 33 42 2 46 -13 2 -23 10 -23 17 0 7 10 16 23 18
20 4 20 4 1 6 -11 0 -24 -2 -27 -6z"/>
<path d="M1340 2925 c0 -40 2 -45 23 -44 16 1 18 2 5 6 -13 3 -18 15 -18 39 0
31 3 35 23 32 17 -2 22 -9 22 -35 0 -17 3 -29 7 -26 12 7 9 48 -4 61 -7 7 -22
12 -35 12 -21 0 -23 -5 -23 -45z"/>
<path d="M1528 2957 c-7 -21 6 -70 20 -73 7 -1 8 0 2 3 -12 6 -13 50 -1 55 5
2 3 8 -4 15 -10 9 -14 9 -17 0z"/>
<path d="M1662 2927 c-2 -45 0 -48 21 -45 17 2 22 10 22 32 0 16 -6 30 -13 32
-7 1 -8 0 -2 -3 16 -7 12 -53 -4 -53 -10 0 -16 14 -19 43 l-4 42 -1 -48z"/>
<path d="M1808 2957 c-7 -21 6 -70 20 -73 7 -1 8 0 2 3 -12 6 -13 50 -1 55 5
2 3 8 -4 15 -10 9 -14 9 -17 0z"/>
<path d="M2146 2954 c-8 -21 -7 -66 2 -81 4 -6 7 13 7 43 0 30 -1 54 -1 54 -1
0 -5 -7 -8 -16z"/>
<path d="M2194 2957 c-3 -9 -4 -28 -2 -44 2 -20 8 -28 23 -28 11 0 20 7 21 15
0 9 -1 10 -3 3 -10 -29 -33 -13 -33 22 0 37 24 50 34 18 4 -14 4 -14 3 2 -3
24 -35 33 -43 12z"/>
<path d="M2314 2957 c-3 -9 -4 -28 -2 -44 2 -20 8 -28 23 -28 11 0 20 7 21 15
0 9 -1 10 -3 3 -10 -29 -33 -13 -33 22 0 37 24 50 34 18 4 -14 4 -14 3 2 -3
24 -35 33 -43 12z"/>
<path d="M2480 2961 c0 -4 11 -6 25 -3 14 2 25 6 25 8 0 2 -11 4 -25 4 -14 0
-25 -4 -25 -9z"/>
<path d="M2554 2957 c-3 -9 -4 -28 -2 -44 2 -20 8 -28 23 -28 11 0 20 7 21 15
0 9 -1 10 -3 3 -10 -29 -33 -13 -33 22 0 37 24 50 34 18 4 -14 4 -14 3 2 -3
24 -35 33 -43 12z"/>
<path d="M2624 2946 c-8 -35 4 -66 26 -66 22 0 34 31 26 66 -4 15 -14 24 -26
24 -12 0 -22 -9 -26 -24z m41 -22 c0 -19 -5 -29 -15 -29 -16 0 -25 28 -16 51
10 25 31 10 31 -22z"/>
<path d="M2744 2946 c-8 -35 4 -66 26 -66 22 0 34 31 26 66 -4 15 -14 24 -26
24 -12 0 -22 -9 -26 -24z m41 -22 c0 -19 -5 -29 -15 -29 -16 0 -25 28 -16 51
10 25 31 10 31 -22z"/>
<path d="M2838 2915 c-1 -30 0 -55 5 -55 4 0 7 25 7 55 0 71 -7 71 -12 0z"/>
<path d="M3551 2961 c-19 -12 -6 -41 19 -41 12 0 20 -7 20 -16 0 -12 -7 -15
-25 -12 -14 3 -25 1 -25 -4 0 -5 12 -8 27 -6 38 4 43 35 8 48 -29 11 -24 35 6
27 11 -3 17 -1 13 4 -7 11 -25 11 -43 0z"/>
<path d="M3920 2925 c0 -40 2 -45 23 -45 29 0 47 18 47 47 0 23 -26 43 -54 43
-12 0 -16 -11 -16 -45z m48 26 c22 -13 11 -56 -15 -59 -20 -3 -23 1 -23 32 0
36 11 44 38 27z"/>
<path d="M4241 2927 c-1 -45 1 -48 22 -45 17 2 22 10 22 33 0 20 -5 30 -15 30
-8 0 -18 7 -22 15 -4 8 -7 -7 -7 -33z m39 -18 c0 -10 -7 -19 -15 -19 -15 0
-21 31 -9 43 11 10 24 -3 24 -24z"/>
<path d="M4725 2959 c-4 -6 -5 -12 -2 -15 2 -3 7 2 10 11 7 17 1 20 -8 4z"/>
<path d="M4791 2965 c-2 -5 -2 -23 -1 -39 1 -16 -4 -33 -12 -37 -9 -6 -3 -9
17 -9 17 0 25 4 18 8 -6 4 -13 25 -16 47 -2 22 -5 36 -6 30z"/>
<path d="M4852 2958 c-17 -17 -15 -67 4 -75 8 -3 20 -1 26 5 8 8 5 9 -11 5
-20 -5 -22 -2 -19 27 4 43 23 49 36 13 6 -15 11 -22 11 -15 1 17 -17 52 -27
52 -5 0 -13 -5 -20 -12z"/>
<path d="M4924 2957 c-3 -9 -4 -28 -2 -44 2 -20 8 -28 23 -28 17 0 20 7 20 40
0 30 -4 41 -18 43 -9 2 -20 -3 -23 -11z m36 -32 c0 -24 -5 -35 -15 -35 -10 0
-15 11 -15 35 0 24 5 35 15 35 10 0 15 -11 15 -35z"/>
<path d="M5002 2958 c-24 -24 -11 -78 19 -78 34 0 37 76 3 87 -5 2 -15 -2 -22
-9z m33 -34 c0 -19 -5 -29 -15 -29 -16 0 -25 28 -16 51 10 25 31 10 31 -22z"/>
<path d="M5122 2958 c-24 -24 -11 -78 19 -78 34 0 37 76 3 87 -5 2 -15 -2 -22
-9z m33 -34 c0 -19 -5 -29 -15 -29 -16 0 -25 28 -16 51 10 25 31 10 31 -22z"/>
<path d="M5290 2960 c-10 -6 -11 -10 -2 -10 7 0 12 -13 12 -29 0 -16 -6 -32
-12 -34 -7 -3 -4 -6 7 -6 18 -1 20 4 17 37 -5 52 -5 52 -22 42z"/>
<path d="M5350 2950 c0 -11 4 -20 10 -20 5 0 7 6 4 14 -4 9 3 16 18 19 21 4
20 4 -4 6 -22 1 -28 -4 -28 -19z"/>
<path d="M5437 2964 c-4 -4 -7 -12 -7 -18 0 -6 4 -5 9 3 13 21 31 4 31 -30 0
-35 -22 -39 -38 -6 -6 12 -11 17 -11 11 -2 -21 26 -47 43 -41 23 9 19 80 -4
85 -9 1 -19 0 -23 -4z"/>
<path d="M5512 2958 c-17 -17 -15 -67 4 -75 8 -3 20 -1 26 5 8 8 5 9 -11 5
-20 -5 -22 -2 -19 27 4 43 23 49 36 13 6 -15 11 -22 11 -15 1 17 -17 52 -27
52 -5 0 -13 -5 -20 -12z"/>
<path d="M5632 2958 c-17 -17 -15 -67 4 -75 8 -3 20 -1 26 5 8 8 5 9 -11 5
-20 -5 -22 -2 -19 27 4 43 23 49 36 13 6 -15 11 -22 11 -15 1 17 -17 52 -27
52 -5 0 -13 -5 -20 -12z"/>
<path d="M6281 2961 c-19 -12 -6 -41 19 -41 12 0 20 -7 20 -16 0 -12 -7 -15
-25 -12 -14 3 -25 1 -25 -4 0 -5 12 -8 27 -6 38 4 43 35 8 48 -29 11 -24 35 6
27 11 -3 17 -1 13 4 -7 11 -25 11 -43 0z"/>
<path d="M6650 2925 c0 -40 2 -45 23 -45 29 0 47 18 47 47 0 23 -26 43 -54 43
-12 0 -16 -11 -16 -45z m48 26 c22 -13 11 -56 -15 -59 -20 -3 -23 1 -23 32 0
36 11 44 38 27z"/>
<path d="M6971 2927 c-1 -45 1 -48 22 -45 17 2 22 10 22 33 0 20 -5 30 -15 30
-8 0 -18 7 -22 15 -4 8 -7 -7 -7 -33z m39 -18 c0 -10 -7 -19 -15 -19 -15 0
-21 31 -9 43 11 10 24 -3 24 -24z"/>
<path d="M7455 2959 c-4 -6 -5 -12 -2 -15 2 -3 7 2 10 11 7 17 1 20 -8 4z"/>
<path d="M7521 2965 c-2 -5 -2 -23 -1 -39 1 -16 -4 -33 -12 -37 -9 -6 -3 -9
17 -9 17 0 25 4 18 8 -6 4 -13 25 -16 47 -2 22 -5 36 -6 30z"/>
<path d="M7580 2961 c0 -5 9 -7 20 -4 11 3 20 7 20 9 0 2 -9 4 -20 4 -11 0
-20 -4 -20 -9z"/>
<path d="M7654 2957 c-3 -9 -4 -28 -2 -44 2 -20 8 -28 23 -28 17 0 20 7 20 40
0 30 -4 41 -18 43 -9 2 -20 -3 -23 -11z m36 -32 c0 -24 -5 -35 -15 -35 -10 0
-15 11 -15 35 0 24 5 35 15 35 10 0 15 -11 15 -35z"/>
<path d="M7732 2958 c-24 -24 -11 -78 19 -78 34 0 37 76 3 87 -5 2 -15 -2 -22
-9z m33 -34 c0 -19 -5 -29 -15 -29 -16 0 -25 28 -16 51 10 25 31 10 31 -22z"/>
<path d="M7852 2958 c-24 -24 -11 -78 19 -78 34 0 37 76 3 87 -5 2 -15 -2 -22
-9z m33 -34 c0 -19 -5 -29 -15 -29 -16 0 -25 28 -16 51 10 25 31 10 31 -22z"/>
<path d="M8023 2963 c23 -6 21 -32 -5 -60 l-21 -23 34 1 c23 1 27 3 11 6 l-22
4 20 26 c22 28 13 54 -19 52 -13 -1 -13 -2 2 -6z"/>
<path d="M8084 2957 c-3 -9 -4 -28 -2 -44 2 -20 8 -28 23 -28 17 0 20 7 20 40
0 30 -4 41 -18 43 -9 2 -20 -3 -23 -11z m36 -32 c0 -24 -5 -35 -15 -35 -10 0
-15 11 -15 35 0 24 5 35 15 35 10 0 15 -11 15 -35z"/>
<path d="M8167 2964 c-4 -4 -7 -12 -7 -18 0 -6 4 -5 9 3 13 21 31 4 31 -30 0
-35 -22 -39 -38 -6 -6 12 -11 17 -11 11 -2 -21 26 -47 43 -41 23 9 19 80 -4
85 -9 1 -19 0 -23 -4z"/>
<path d="M8242 2958 c-17 -17 -15 -67 4 -75 8 -3 20 -1 26 5 8 8 5 9 -11 5
-20 -5 -22 -2 -19 27 4 43 23 49 36 13 6 -15 11 -22 11 -15 1 17 -17 52 -27
52 -5 0 -13 -5 -20 -12z"/>
<path d="M8362 2958 c-17 -17 -15 -67 4 -75 8 -3 20 -1 26 5 8 8 5 9 -11 5
-20 -5 -22 -2 -19 27 4 43 23 49 36 13 6 -15 11 -22 11 -15 1 17 -17 52 -27
52 -5 0 -13 -5 -20 -12z"/>
<path d="M9041 2961 c-17 -11 -6 -30 26 -42 30 -11 20 -33 -13 -26 -13 2 -21
0 -18 -4 8 -14 40 -11 53 5 12 15 2 27 -33 40 -22 7 -12 21 19 29 l20 5 -20 1
c-11 0 -26 -3 -34 -8z"/>
<path d="M9420 2925 c0 -38 3 -45 19 -45 23 0 51 25 51 45 0 20 -28 45 -51 45
-16 0 -19 -7 -19 -45z m53 13 c8 -12 7 -21 -2 -32 -23 -28 -41 -19 -41 20 0
28 4 35 16 32 9 -2 22 -10 27 -20z"/>
<path d="M9731 2928 c-1 -44 1 -48 23 -48 30 0 40 14 32 46 -4 15 -14 24 -25
24 -11 0 -22 6 -24 13 -3 6 -6 -9 -6 -35z m44 -14 c0 -10 -8 -20 -17 -22 -18
-3 -26 27 -11 42 12 11 28 0 28 -20z"/>
<path d="M10225 2959 c-4 -6 -5 -12 -2 -15 2 -3 7 2 10 11 7 17 1 20 -8 4z"/>
<path d="M10270 2950 c0 -11 4 -20 10 -20 5 0 7 6 4 14 -4 9 3 16 18 19 21 4
20 4 -4 6 -22 1 -28 -4 -28 -19z"/>
<path d="M10347 2963 c-14 -13 -7 -74 8 -79 21 -8 45 14 45 40 0 34 -34 59
-53 39z m38 -39 c0 -19 -5 -29 -15 -29 -16 0 -25 28 -16 51 10 25 31 10 31
-22z"/>
<path d="M10424 2957 c-3 -9 -4 -28 -2 -44 2 -20 8 -28 23 -28 11 0 20 7 21
15 0 9 -1 10 -3 3 -10 -29 -33 -13 -33 22 0 37 24 50 34 18 4 -14 4 -14 3 2
-3 24 -35 33 -43 12z"/>
<path d="M10544 2957 c-3 -9 -4 -28 -2 -44 2 -20 8 -28 23 -28 11 0 20 7 21
15 0 9 -1 10 -3 3 -10 -29 -33 -13 -33 22 0 37 24 50 34 18 4 -14 4 -14 3 2
-3 24 -35 33 -43 12z"/>
<path d="M10785 2960 c-4 -6 -4 -14 -1 -17 3 -4 6 -1 6 5 0 7 7 12 15 12 10 0
15 -11 15 -35 0 -34 -21 -50 -33 -25 -3 6 -4 5 -3 -2 2 -7 11 -13 22 -13 16 0
19 7 19 40 0 29 -4 41 -17 43 -9 2 -19 -2 -23 -8z"/>
<path d="M10854 2946 c-8 -35 4 -66 26 -66 22 0 34 31 26 66 -4 15 -14 24 -26
24 -12 0 -22 -9 -26 -24z m41 -22 c0 -19 -5 -29 -15 -29 -16 0 -25 28 -16 51
10 25 31 10 31 -22z"/>
<path d="M10934 2957 c-3 -9 -4 -28 -2 -44 2 -20 8 -28 23 -28 11 0 20 7 21
15 0 9 -1 10 -3 3 -10 -29 -33 -13 -33 22 0 37 24 50 34 18 4 -14 4 -14 3 2
-3 24 -35 33 -43 12z"/>
<path d="M11054 2957 c-3 -9 -4 -28 -2 -44 2 -20 8 -28 23 -28 11 0 20 7 21
15 0 9 -1 10 -3 3 -10 -29 -33 -13 -33 22 0 37 24 50 34 18 4 -14 4 -14 3 2
-3 24 -35 33 -43 12z"/>
<path d="M4109 2956 c-11 -11 6 -69 21 -74 10 -2 11 -1 3 5 -6 4 -13 23 -15
42 -2 18 -6 30 -9 27z"/>
<path d="M4389 2956 c-11 -11 6 -69 21 -74 10 -2 11 -1 3 5 -6 4 -13 23 -15
42 -2 18 -6 30 -9 27z"/>
<path d="M6839 2956 c-11 -11 6 -69 21 -74 10 -2 11 -1 3 5 -6 4 -13 23 -15
42 -2 18 -6 30 -9 27z"/>
<path d="M7119 2956 c-11 -11 6 -69 21 -74 10 -2 11 -1 3 5 -6 4 -13 23 -15
42 -2 18 -6 30 -9 27z"/>
<path d="M9600 2936 c0 -36 10 -56 29 -56 14 1 14 2 -1 11 -20 11 -24 45 -6
51 7 3 6 7 -5 11 -13 5 -17 1 -17 -17z"/>
<path d="M9888 2955 c-2 -3 -2 -20 0 -40 3 -25 9 -35 21 -34 10 0 11 2 4 6
-16 6 -17 50 -1 55 8 3 6 6 -4 10 -9 4 -18 5 -20 3z"/>
<path d="M1045 2939 c-4 -6 -4 -13 -1 -16 3 -4 6 -1 6 5 0 6 8 13 18 15 15 4
15 5 0 6 -9 0 -20 -4 -23 -10z"/>
<path d="M1107 2943 c-13 -13 -7 -54 9 -60 24 -9 46 24 33 48 -10 19 -30 25
-42 12z m35 -15 c7 -19 -2 -38 -18 -38 -8 0 -14 8 -14 18 0 30 23 44 32 20z"/>
<path d="M1188 2943 c-13 -3 -18 -14 -17 -36 2 -27 2 -28 6 -7 3 13 12 30 21
37 18 13 17 13 -10 6z"/>
<path d="M1229 2934 c-17 -21 0 -48 32 -51 19 -1 20 -1 4 4 -34 9 -41 23 -12
23 29 0 34 9 15 28 -16 16 -23 15 -39 -4z m36 -4 c3 -5 -3 -10 -15 -10 -12 0
-18 5 -15 10 3 6 10 10 15 10 5 0 12 -4 15 -10z"/>
<path d="M1433 2915 c0 -22 2 -30 4 -17 2 12 2 30 0 40 -3 9 -5 -1 -4 -23z"/>
<path d="M1465 2940 c-8 -14 3 -30 21 -30 23 0 16 -20 -8 -21 -19 -1 -20 -2
-4 -6 30 -8 45 16 21 33 -17 13 -18 16 -5 24 13 8 13 10 -2 10 -9 0 -20 -4
-23 -10z"/>
<path d="M1588 2943 c-13 -3 -18 -14 -17 -36 2 -27 2 -28 6 -7 3 13 12 30 21
37 18 13 17 13 -10 6z"/>
<path d="M1897 2944 c-4 -4 -7 -12 -7 -18 0 -6 4 -5 9 3 11 18 31 5 31 -20 0
-20 -25 -27 -33 -9 -3 6 -4 5 -3 -2 2 -7 11 -13 22 -13 14 0 19 7 19 30 0 29
-22 45 -38 29z"/>
<path d="M1973 2943 c-7 -2 -12 -19 -12 -36 l1 -32 7 30 c3 17 13 30 21 30 8
0 18 -13 21 -30 6 -28 7 -28 8 -4 0 14 -4 30 -11 37 -13 13 -16 13 -35 5z"/>
<path d="M3630 2935 c-18 -22 -8 -50 20 -52 l25 -3 -23 10 c-27 11 -26 46 1
44 9 -1 14 2 11 7 -8 13 -20 11 -34 -6z"/>
<path d="M3691 2936 c-17 -20 -4 -56 20 -56 24 0 36 27 22 48 -14 22 -28 25
-42 8z m36 -12 c8 -21 -13 -42 -28 -27 -13 13 -5 43 11 43 6 0 13 -7 17 -16z"/>
<path d="M4051 2941 c-16 -10 -6 -31 15 -31 23 0 16 -18 -8 -23 -21 -5 -21 -5
1 -4 31 2 40 27 12 34 -11 3 -18 10 -15 15 3 5 13 7 21 4 8 -3 11 -1 8 4 -8
12 -16 12 -34 1z"/>
<path d="M4498 2939 c16 -17 15 -49 -2 -49 -8 0 -17 5 -19 10 -3 6 -4 5 -3 -2
2 -7 11 -13 22 -13 26 0 32 50 7 59 -14 6 -16 5 -5 -5z"/>
<path d="M4576 2937 c3 -10 9 -15 12 -12 3 3 0 11 -7 18 -10 9 -11 8 -5 -6z"/>
<path d="M6360 2935 c-18 -22 -8 -50 20 -52 l25 -3 -23 10 c-27 11 -26 46 1
44 9 -1 14 2 11 7 -8 13 -20 11 -34 -6z"/>
<path d="M6421 2936 c-17 -20 -4 -56 20 -56 24 0 36 27 22 48 -14 22 -28 25
-42 8z m36 -12 c8 -21 -13 -42 -28 -27 -13 13 -5 43 11 43 6 0 13 -7 17 -16z"/>
<path d="M6781 2941 c-16 -10 -6 -31 15 -31 23 0 16 -18 -8 -23 -21 -5 -21 -5
1 -4 31 2 40 27 12 34 -11 3 -18 10 -15 15 3 5 13 7 21 4 8 -3 11 -1 8 4 -8
12 -16 12 -34 1z"/>
<path d="M7228 2939 c16 -17 15 -49 -2 -49 -8 0 -17 5 -19 10 -3 6 -4 5 -3 -2
2 -7 11 -13 22 -13 26 0 32 50 7 59 -14 6 -16 5 -5 -5z"/>
<path d="M7306 2937 c3 -10 9 -15 12 -12 3 3 0 11 -7 18 -10 9 -11 8 -5 -6z"/>
<path d="M9119 2934 c-16 -19 -1 -48 27 -51 15 -2 14 -1 -3 7 -13 5 -23 16
-23 25 0 9 10 20 23 25 15 6 17 9 6 9 -9 1 -22 -6 -30 -15z"/>
<path d="M9187 2944 c-4 -4 -7 -12 -7 -18 0 -6 4 -5 9 3 11 18 31 5 31 -20 0
-20 -25 -27 -33 -9 -3 6 -4 5 -3 -2 2 -7 11 -13 22 -13 14 0 19 7 19 30 0 29
-22 45 -38 29z"/>
<path d="M9250 2916 c0 -20 2 -36 4 -36 8 0 12 61 4 66 -4 3 -8 -11 -8 -30z"/>
<path d="M9304 2936 c-11 -28 0 -51 26 -53 22 -1 22 -1 3 4 -29 6 -30 23 -2
23 14 0 19 5 17 17 -4 23 -36 29 -44 9z m36 -6 c0 -5 -7 -10 -15 -10 -8 0 -15
5 -15 10 0 6 7 10 15 10 8 0 15 -4 15 -10z"/>
<path d="M9513 2915 c0 -22 2 -30 4 -17 2 12 2 30 0 40 -3 9 -5 -1 -4 -23z"/>
<path d="M9547 2943 c-12 -11 -8 -22 13 -33 14 -7 20 -7 20 0 0 5 -7 10 -15
10 -21 0 -19 18 3 23 14 4 14 5 1 6 -9 0 -19 -2 -22 -6z"/>
<path d="M9650 2916 c0 -20 2 -36 4 -36 8 0 12 61 4 66 -4 3 -8 -11 -8 -30z"/>
<path d="M9703 2915 c0 -22 2 -30 4 -17 2 12 2 30 0 40 -3 9 -5 -1 -4 -23z"/>
<path d="M9813 2918 c1 -26 7 -34 25 -36 20 -3 22 1 20 35 -1 37 -1 37 -5 6
-5 -42 -30 -43 -37 -3 -6 30 -6 30 -3 -2z"/>
<path d="M9970 2935 c-18 -22 -3 -57 23 -53 37 5 33 67 -4 68 -4 0 -12 -7 -19
-15z m37 -11 c8 -21 -13 -42 -28 -27 -13 13 -5 43 11 43 6 0 13 -7 17 -16z"/>
<path d="M10041 2911 c1 -35 2 -35 8 -7 9 42 29 44 34 4 l5 -33 -2 35 c-1 29
-5 35 -23 36 -20 1 -23 -3 -22 -35z"/>
<path d="M1632 2910 c0 -19 2 -27 5 -17 2 9 2 25 0 35 -3 9 -5 1 -5 -18z"/>
<path d="M1731 2928 c-2 -30 11 -48 35 -48 21 0 24 5 23 33 -1 29 -2 30 -8 7
-4 -14 -13 -25 -21 -25 -8 0 -17 11 -21 25 -4 14 -7 18 -8 8z"/>
<path d="M1862 2910 c0 -19 2 -27 5 -17 2 9 2 25 0 35 -3 9 -5 1 -5 -18z"/>
<path d="M3760 2910 c0 -16 2 -30 4 -30 2 0 6 14 8 30 3 17 1 30 -4 30 -4 0
-8 -13 -8 -30z"/>
<path d="M3813 2915 c2 -24 7 -30 27 -32 22 -1 22 -1 3 4 -28 6 -30 23 -3 23
13 0 20 6 19 18 0 10 -3 12 -6 5 -2 -7 -11 -13 -18 -13 -7 0 -16 6 -19 13 -3
6 -4 -1 -3 -18z"/>
<path d="M4012 2910 c0 -19 2 -27 5 -17 2 9 2 25 0 35 -3 9 -5 1 -5 -18z"/>
<path d="M4160 2910 c0 -16 2 -30 4 -30 2 0 6 14 8 30 3 17 1 30 -4 30 -4 0
-8 -13 -8 -30z"/>
<path d="M4212 2910 c0 -19 2 -27 5 -17 2 9 2 25 0 35 -3 9 -5 1 -5 -18z"/>
<path d="M4311 2928 c-2 -30 11 -48 35 -48 21 0 24 5 23 33 -1 29 -2 30 -8 7
-4 -14 -13 -25 -21 -25 -8 0 -17 11 -21 25 -4 14 -7 18 -8 8z"/>
<path d="M4442 2910 c0 -19 2 -27 5 -17 2 9 2 25 0 35 -3 9 -5 1 -5 -18z"/>
<path d="M4540 2910 c0 -16 2 -30 4 -30 2 0 6 14 8 30 3 17 1 30 -4 30 -4 0
-8 -13 -8 -30z"/>
<path d="M6490 2910 c0 -16 2 -30 4 -30 2 0 6 14 8 30 3 17 1 30 -4 30 -4 0
-8 -13 -8 -30z"/>
<path d="M6543 2915 c2 -24 7 -30 27 -32 22 -1 22 -1 3 4 -28 6 -30 23 -3 23
13 0 20 6 19 18 0 10 -3 12 -6 5 -2 -7 -11 -13 -18 -13 -7 0 -16 6 -19 13 -3
6 -4 -1 -3 -18z"/>
<path d="M6742 2910 c0 -19 2 -27 5 -17 2 9 2 25 0 35 -3 9 -5 1 -5 -18z"/>
<path d="M6890 2910 c0 -16 2 -30 4 -30 2 0 6 14 8 30 3 17 1 30 -4 30 -4 0
-8 -13 -8 -30z"/>
<path d="M6942 2910 c0 -19 2 -27 5 -17 2 9 2 25 0 35 -3 9 -5 1 -5 -18z"/>
<path d="M7041 2928 c-2 -30 11 -48 35 -48 21 0 24 5 23 33 -1 29 -2 30 -8 7
-4 -14 -13 -25 -21 -25 -8 0 -17 11 -21 25 -4 14 -7 18 -8 8z"/>
<path d="M7172 2910 c0 -19 2 -27 5 -17 2 9 2 25 0 35 -3 9 -5 1 -5 -18z"/>
<path d="M7270 2910 c0 -16 2 -30 4 -30 2 0 6 14 8 30 3 17 1 30 -4 30 -4 0
-8 -13 -8 -30z"/>
<path d="M9932 2910 c0 -19 2 -27 5 -17 2 9 2 25 0 35 -3 9 -5 1 -5 -18z"/>
<path d="M2510 2920 c17 -11 6 -25 -25 -33 -19 -4 -19 -5 1 -6 12 0 27 6 34
14 13 15 6 35 -13 35 -7 0 -6 -4 3 -10z"/>
<path d="M4711 2914 c0 -11 3 -14 6 -6 3 7 2 16 -1 19 -3 4 -6 -2 -5 -13z"/>
<path d="M5387 2911 c3 -14 -1 -21 -16 -24 -19 -4 -19 -5 1 -3 16 1 24 8 26
24 2 12 -1 22 -6 22 -6 0 -8 -9 -5 -19z"/>
<path d="M7441 2914 c0 -11 3 -14 6 -6 3 7 2 16 -1 19 -3 4 -6 -2 -5 -13z"/>
<path d="M7610 2915 c10 -12 10 -16 -1 -19 -41 -13 -43 -14 -23 -15 11 -1 25
4 31 10 13 13 6 39 -9 39 -6 0 -5 -6 2 -15z"/>
<path d="M10211 2914 c0 -11 3 -14 6 -6 3 7 2 16 -1 19 -3 4 -6 -2 -5 -13z"/>
<path d="M10307 2911 c3 -14 -1 -21 -16 -24 -19 -4 -19 -5 1 -3 16 1 24 8 26
24 2 12 -1 22 -6 22 -6 0 -8 -9 -5 -19z"/>
<path d="M1043 2900 c2 -8 12 -16 23 -17 13 -2 15 -1 4 4 -8 3 -19 11 -23 17
-6 7 -7 6 -4 -4z"/>
<path d="M5193 2885 c-3 -9 -3 -18 -1 -21 3 -3 8 4 11 16 6 23 -1 27 -10 5z"/>
<path d="M7923 2885 c-3 -9 -3 -18 -1 -21 3 -3 8 4 11 16 6 23 -1 27 -10 5z"/>
<path d="M10617 2881 c-4 -17 -3 -21 5 -13 5 5 8 16 6 23 -3 8 -7 3 -11 -10z"/>
<path d="M4720 2881 c0 -6 4 -13 10 -16 6 -3 7 1 4 9 -7 18 -14 21 -14 7z"/>
<path d="M7450 2881 c0 -6 4 -13 10 -16 6 -3 7 1 4 9 -7 18 -14 21 -14 7z"/>
<path d="M9548 2883 c6 -2 18 -2 25 0 6 3 1 5 -13 5 -14 0 -19 -2 -12 -5z"/>
<path d="M10220 2881 c0 -6 4 -13 10 -16 6 -3 7 1 4 9 -7 18 -14 21 -14 7z"/>
<path d="M10718 2883 c6 -2 18 -2 25 0 6 3 1 5 -13 5 -14 0 -19 -2 -12 -5z"/>
<path d="M1755 2840 c-136 -20 -299 -82 -412 -157 -77 -51 -215 -184 -268
-258 -206 -290 -248 -660 -114 -991 l20 -52 457 223 457 222 3 512 2 511 -47
-1 c-27 -1 -70 -5 -98 -9z"/>
<path d="M1910 2339 l0 -511 286 -421 c158 -232 288 -423 288 -424 1 -1 36 27
78 62 256 216 396 560 360 883 -47 411 -306 735 -692 867 -82 28 -220 55 -281
55 l-39 0 0 -511z m426 -317 c43 -29 16 -114 -31 -96 -19 8 -21 90 -2 97 17 8
21 8 33 -1z m-66 -21 c0 -11 2 -25 5 -33 7 -18 -15 -48 -22 -30 -2 6 -13 12
-24 12 -23 0 -24 13 -3 45 19 30 44 33 44 6z m200 9 c0 -5 -10 -10 -22 -11
l-23 0 23 -9 c14 -6 22 -18 22 -34 0 -25 -20 -39 -45 -30 -20 8 -19 26 1 22
10 -2 19 3 21 10 3 7 -4 12 -16 12 -16 0 -21 6 -21 25 0 21 5 25 30 25 17 0
30 -4 30 -10z m64 -2 c5 -10 7 -10 12 0 3 6 12 12 20 12 12 0 12 -4 4 -20 -8
-16 -8 -18 4 -14 8 3 19 -3 25 -15 9 -15 7 -23 -5 -36 -15 -15 -18 -15 -35 1
-11 10 -19 12 -19 6 0 -7 -7 -12 -15 -12 -13 0 -14 4 -5 20 8 16 8 18 -4 14
-16 -6 -36 24 -29 44 3 6 13 12 23 12 10 0 21 -6 24 -12z m-144 -68 c0 -5 -4
-10 -10 -10 -5 0 -10 5 -10 10 0 6 5 10 10 10 6 0 10 -4 10 -10z"/>
<path d="M2310 1975 c0 -14 5 -25 10 -25 6 0 10 11 10 25 0 14 -4 25 -10 25
-5 0 -10 -11 -10 -25z"/>
<path d="M7186 2834 c-700 -126 -1062 -913 -702 -1524 55 -93 159 -216 234
-276 255 -203 559 -269 902 -198 60 13 199 71 268 113 244 146 416 387 478
668 28 125 23 331 -10 458 -89 340 -333 607 -657 718 -159 55 -351 70 -513 41z"/>
<path d="M4060 2251 c0 -5 9 -7 20 -4 13 4 20 0 20 -9 0 -8 -9 -23 -20 -33
-28 -26 -25 -35 13 -34 25 1 27 3 9 6 l-24 5 22 23 c13 14 20 31 17 39 -7 17
-57 23 -57 7z"/>
<path d="M4158 2253 c26 -5 26 -6 6 -44 -8 -17 -13 -33 -10 -36 4 -4 46 69 46
82 0 3 -15 4 -32 4 -24 -1 -27 -3 -10 -6z"/>
<path d="M4214 2245 c-4 -9 -2 -21 4 -27 15 -15 44 -1 40 19 -4 23 -36 29 -44
8z m23 -17 c-3 -8 -6 -5 -6 6 -1 11 2 17 5 13 3 -3 4 -12 1 -19z"/>
<path d="M4262 2215 c-12 -25 -18 -45 -14 -45 4 0 18 20 30 45 12 25 18 45 14
45 -4 0 -18 -20 -30 -45z"/>
<path d="M9460 2231 c0 -6 6 -8 14 -5 24 9 27 -12 6 -39 -27 -34 -25 -37 13
-36 24 1 27 3 9 6 -22 4 -23 6 -7 23 22 24 16 54 -13 58 -12 2 -22 -1 -22 -7z"/>
<path d="M9552 2233 l28 -4 -20 -40 c-11 -21 -17 -39 -12 -39 4 0 18 20 30 45
l22 45 -38 -1 c-30 -2 -32 -3 -10 -6z"/>
<path d="M9655 2221 c-8 -25 1 -41 21 -41 20 0 18 -17 -3 -24 -11 -3 -7 -4 7
-3 22 2 25 6 25 42 0 33 -4 41 -22 43 -14 2 -23 -3 -28 -17z m40 -9 c0 -18
-20 -15 -23 4 -3 10 1 15 10 12 7 -3 13 -10 13 -16z"/>
<path d="M9730 2215 c0 -19 5 -25 21 -25 16 0 19 -4 14 -20 -9 -29 2 -25 19 8
l15 27 1 -28 c0 -22 4 -28 18 -25 9 2 18 13 20 26 3 17 -2 22 -18 22 -17 0
-20 4 -15 20 9 29 -2 25 -19 -7 l-15 -28 -1 28 c0 20 -5 27 -20 27 -15 0 -20
-7 -20 -25z m30 0 c0 -8 -4 -15 -10 -15 -5 0 -10 7 -10 15 0 8 5 15 10 15 6 0
10 -7 10 -15z m70 -40 c0 -8 -4 -15 -10 -15 -5 0 -10 7 -10 15 0 8 5 15 10 15
6 0 10 -7 10 -15z"/>
<path d="M4284 2205 c-7 -18 3 -35 21 -35 15 0 24 19 18 38 -6 17 -32 15 -39
-3z m26 -11 c0 -8 -5 -12 -10 -9 -6 4 -8 11 -5 16 9 14 15 11 15 -7z"/>
<path d="M4900 2201 c0 -5 9 -7 20 -4 13 4 20 0 20 -9 0 -8 -9 -23 -20 -33
-28 -26 -25 -35 13 -34 25 1 27 3 9 6 l-24 5 22 23 c13 14 20 31 17 39 -7 17
-57 23 -57 7z"/>
<path d="M4976 2195 c-8 -21 0 -34 28 -45 21 -8 21 -8 -4 -18 -25 -11 -25 -11
-2 -11 28 -1 51 42 35 67 -14 23 -49 27 -57 7z m42 -12 c-4 -22 -22 -20 -26 1
-2 10 3 16 13 16 10 0 15 -7 13 -17z"/>
<path d="M5113 2203 c32 -5 33 -8 7 -50 -11 -18 -15 -33 -10 -33 8 0 50 70 50
85 0 3 -17 4 -37 4 -31 -2 -33 -3 -10 -6z"/>
<path d="M5174 2195 c-4 -9 -2 -21 4 -27 15 -15 44 -1 40 19 -4 23 -36 29 -44
8z m23 -17 c-3 -8 -6 -5 -6 6 -1 11 2 17 5 13 3 -3 4 -12 1 -19z"/>
<path d="M5222 2165 c-12 -25 -18 -45 -14 -45 4 0 18 20 30 45 12 25 18 45 14
45 -4 0 -18 -20 -30 -45z"/>
<path d="M5244 2155 c-7 -18 3 -35 21 -35 15 0 24 19 18 38 -6 17 -32 15 -39
-3z m26 -11 c0 -8 -5 -12 -10 -9 -6 4 -8 11 -5 16 9 14 15 11 15 -7z"/>
<path d="M9610 2160 c0 -5 5 -10 10 -10 6 0 10 5 10 10 0 6 -4 10 -10 10 -5 0
-10 -4 -10 -10z"/>
<path d="M5060 2130 c0 -5 5 -10 11 -10 5 0 7 5 4 10 -3 6 -8 10 -11 10 -2 0
-4 -4 -4 -10z"/>
<path d="M10428 1915 c-23 -31 -23 -45 1 -45 11 0 22 -6 24 -12 7 -18 29 12
22 30 -3 8 -5 22 -5 33 0 26 -21 23 -42 -6z m22 -15 c0 -5 -5 -10 -11 -10 -5
0 -7 5 -4 10 3 6 8 10 11 10 2 0 4 -4 4 -10z"/>
<path d="M10490 1919 c0 -12 8 -23 20 -26 11 -3 20 -12 20 -20 0 -10 -7 -14
-20 -10 -11 3 -20 1 -20 -5 0 -5 12 -8 28 -6 35 4 45 46 13 55 -28 7 -27 21 2
26 16 3 13 5 -10 6 -27 1 -33 -3 -33 -20z"/>
<path d="M10617 1934 c-15 -15 -6 -46 14 -51 21 -6 21 -7 4 -20 -16 -11 -16
-13 -3 -13 41 0 53 82 13 88 -12 2 -24 0 -28 -4z m37 -19 c3 -9 0 -15 -9 -15
-8 0 -15 7 -15 15 0 8 4 15 9 15 5 0 11 -7 15 -15z"/>
<path d="M10688 1928 c-8 -21 2 -38 23 -38 17 0 18 -3 9 -20 -6 -11 -7 -20 -3
-20 8 0 53 73 53 84 0 15 -18 4 -28 -16 l-11 -23 0 23 c-1 24 -35 32 -43 10z
m27 -7 c3 -5 1 -12 -5 -16 -5 -3 -10 1 -10 9 0 18 6 21 15 7z"/>
<path d="M10754 1885 c-4 -9 -2 -21 4 -27 15 -15 44 -1 40 19 -4 23 -36 29
-44 8z m23 -17 c-3 -8 -6 -5 -6 6 -1 11 2 17 5 13 3 -3 4 -12 1 -19z"/>
<path d="M10570 1860 c0 -5 5 -10 10 -10 6 0 10 5 10 10 0 6 -4 10 -10 10 -5
0 -10 -4 -10 -10z"/>
<path d="M4645 1807 c-2 -7 15 -232 38 -502 l43 -490 49 3 c191 9 458 146 606
310 77 85 163 221 199 313 17 45 30 82 28 84 -2 2 -824 254 -931 286 -19 5
-29 4 -32 -4z m317 -314 c167 -175 321 -338 343 -363 l39 -45 -46 45 c-25 25
-152 158 -283 295 -131 138 -268 280 -304 318 -36 37 -63 67 -60 67 4 0 143
-143 311 -317z m-62 -368 c0 -23 -6 -38 -18 -44 -28 -15 -52 5 -52 44 0 39 24
59 52 44 12 -6 18 -21 18 -44z m118 0 c0 -24 -6 -39 -18 -45 -26 -14 -49 9
-47 48 4 65 65 62 65 -3z m62 26 c1 -14 2 -14 11 2 14 24 32 22 24 -3 -4 -11
-3 -20 2 -19 23 4 33 -3 33 -25 0 -37 -50 -44 -50 -7 -1 14 -2 14 -11 -1 -14
-25 -32 -23 -24 2 4 11 3 20 -2 19 -23 -4 -33 3 -33 25 0 37 50 44 50 7z
m-280 -20 c0 -22 5 -42 13 -44 6 -3 -4 -5 -23 -5 -19 0 -29 2 -22 5 15 6 16
49 1 59 -8 4 -7 9 2 15 24 15 29 10 29 -30z m140 -41 c0 -5 -7 -10 -15 -10 -8
0 -15 5 -15 10 0 6 7 10 15 10 8 0 15 -4 15 -10z"/>
<path d="M4854 1147 c-7 -20 -2 -47 11 -50 14 -3 19 43 6 56 -7 7 -12 6 -17
-6z"/>
<path d="M4980 1150 c0 -5 5 -10 11 -10 5 0 7 5 4 10 -3 6 -8 10 -11 10 -2 0
-4 -4 -4 -10z"/>
<path d="M4976 1111 c-4 -5 -2 -12 3 -15 5 -4 12 -2 15 3 4 5 2 12 -3 15 -5 4
-12 2 -15 -3z"/>
<path d="M5051 1144 c0 -11 3 -14 6 -6 3 7 2 16 -1 19 -3 4 -6 -2 -5 -13z"/>
<path d="M5121 1104 c0 -11 3 -14 6 -6 3 7 2 16 -1 19 -3 4 -6 -2 -5 -13z"/>
<path d="M9576 1729 c-263 -48 -480 -90 -482 -92 -7 -7 26 -126 55 -194 81
-197 218 -362 394 -476 52 -34 168 -91 172 -85 1 2 85 213 187 471 141 356
182 467 169 466 -9 -1 -231 -41 -495 -90z m-76 -304 c0 -8 -8 -15 -17 -16 -14
0 -13 -2 5 -9 26 -11 29 -45 5 -59 -26 -14 -53 5 -53 37 0 31 9 47 30 55 25 9
30 8 30 -8z m204 -10 c3 8 10 15 16 15 7 0 8 -6 1 -19 -8 -15 -7 -18 5 -17 25
2 41 -29 25 -48 -16 -20 -41 -10 -42 18 0 21 0 21 -11 -1 -6 -13 -15 -23 -20
-23 -11 0 -10 7 3 33 9 18 9 20 -1 10 -18 -17 -40 -5 -40 22 0 31 21 38 41 14
14 -16 18 -16 23 -4z m-294 -24 c0 -22 5 -42 13 -44 6 -3 -4 -5 -23 -5 -19 0
-29 2 -22 5 6 2 12 15 12 28 0 13 -6 26 -12 28 -10 4 -9 8 2 16 25 18 30 13
30 -28z m202 -6 c3 -40 1 -45 -17 -45 -17 0 -20 6 -19 38 2 52 2 52 18 52 9 0
15 -15 18 -45z m-62 -35 c0 -5 -7 -10 -15 -10 -8 0 -15 5 -15 10 0 6 7 10 15
10 8 0 15 -4 15 -10z"/>
<path d="M9462 1369 c2 -6 8 -10 13 -10 5 0 11 4 13 10 2 6 -4 11 -13 11 -9 0
-15 -5 -13 -11z"/>
<path d="M9661 1404 c0 -11 3 -14 6 -6 3 7 2 16 -1 19 -3 4 -6 -2 -5 -13z"/>
<path d="M1910 1593 c0 -115 3 -339 7 -498 l6 -288 81 6 c104 7 219 38 328 89
49 23 88 42 88 44 0 4 -500 847 -506 853 -2 2 -4 -90 -4 -206z"/>
<path d="M10063 1288 c-25 -364 -29 -474 -20 -480 15 -10 161 0 242 16 48 10
60 16 58 30 -4 54 -218 834 -225 824 -5 -8 -8 1 -8 22 0 19 -4 40 -8 47 -4 7
-22 -200 -39 -459z m64 335 c-3 -10 -5 -4 -5 12 0 17 2 24 5 18 2 -7 2 -21 0
-30z m10 -70 c-3 -10 -5 -2 -5 17 0 19 2 27 5 18 2 -10 2 -26 0 -35z m10 -60
c-3 -10 -5 -4 -5 12 0 17 2 24 5 18 2 -7 2 -21 0 -30z m21 -123 c0 -16 -3 -11
-9 15 -4 22 -8 51 -7 65 0 16 3 11 9 -15 4 -22 8 -51 7 -65z m20 -130 c0 -16
-3 -11 -9 15 -4 22 -8 51 -7 65 0 16 3 11 9 -15 4 -22 8 -51 7 -65z m20 -130
c0 -16 -3 -11 -9 15 -4 22 -8 51 -7 65 0 16 3 11 9 -15 4 -22 8 -51 7 -65z
m20 -130 c0 -16 -3 -11 -9 15 -4 22 -8 51 -7 65 0 16 3 11 9 -15 4 -22 8 -51
7 -65z m9 -67 c-3 -10 -5 -4 -5 12 0 17 2 24 5 18 2 -7 2 -21 0 -30z m10 -70
c-3 -10 -5 -2 -5 17 0 19 2 27 5 18 2 -10 2 -26 0 -35z"/>
<path d="M4060 1391 c0 -5 9 -7 20 -4 13 4 20 0 20 -9 0 -8 -9 -23 -20 -33
-28 -26 -25 -35 13 -34 17 1 24 3 15 6 -22 6 -22 12 -2 34 9 10 14 25 11 34
-7 16 -57 21 -57 6z"/>
<path d="M4151 1374 c-26 -33 -26 -44 -2 -44 11 0 22 -6 24 -12 7 -18 29 12
22 30 -3 8 -5 22 -5 33 0 26 -15 24 -39 -7z m19 -14 c0 -5 -5 -10 -11 -10 -5
0 -7 5 -4 10 3 6 8 10 11 10 2 0 4 -4 4 -10z"/>
<path d="M4260 1392 c0 -6 9 -8 20 -5 22 6 28 -12 8 -21 -10 -5 -10 -7 0 -12
21 -10 14 -37 -8 -31 -11 3 -20 1 -20 -5 0 -5 12 -8 28 -6 24 3 27 7 27 43 0
36 -3 40 -27 43 -16 2 -28 -1 -28 -6z"/>
<path d="M4334 1385 c-4 -9 -2 -21 4 -27 15 -15 44 -1 40 19 -4 23 -36 29 -44
8z m23 -17 c-3 -8 -6 -5 -6 6 -1 11 2 17 5 13 3 -3 4 -12 1 -19z"/>
<path d="M4382 1355 c-12 -25 -18 -45 -14 -45 4 0 18 20 30 45 12 25 18 45 14
45 -4 0 -18 -20 -30 -45z"/>
<path d="M4404 1345 c-4 -9 -2 -21 4 -27 15 -15 44 -1 40 19 -4 23 -36 29 -44
8z m23 -17 c-3 -8 -6 -5 -6 6 -1 11 2 17 5 13 3 -3 4 -12 1 -19z"/>
<path d="M4220 1320 c0 -5 5 -10 10 -10 6 0 10 5 10 10 0 6 -4 10 -10 10 -5 0
-10 -4 -10 -10z"/>
<path d="M1370 1290 c-10 -6 -11 -10 -2 -10 7 0 12 -13 12 -29 0 -16 -6 -32
-12 -34 -7 -3 3 -5 22 -5 19 0 29 2 23 5 -8 2 -13 22 -13 44 0 41 -5 45 -30
29z"/>
<path d="M1453 1293 c15 -2 27 -6 27 -8 0 -2 -9 -20 -21 -39 -12 -20 -16 -36
-10 -36 9 0 51 69 51 85 0 3 -17 4 -37 4 -31 -2 -33 -3 -10 -6z"/>
<path d="M1554 1285 c-7 -19 3 -34 30 -45 21 -8 21 -8 -4 -18 -24 -10 -24 -11
-3 -11 27 -1 47 32 39 65 -5 17 -13 24 -32 24 -13 0 -27 -7 -30 -15z m46 -16
c0 -5 -7 -9 -15 -9 -15 0 -20 12 -9 23 8 8 24 -1 24 -14z"/>
<path d="M1634 1285 c-7 -18 3 -35 22 -35 11 0 14 -6 9 -22 -9 -29 4 -16 34
35 13 20 18 37 12 37 -6 0 -17 -12 -26 -27 -8 -16 -15 -21 -14 -13 3 30 -1 40
-16 40 -9 0 -18 -7 -21 -15z m26 -11 c0 -8 -5 -12 -10 -9 -6 4 -8 11 -5 16 9
14 15 11 15 -7z"/>
<path d="M1700 1235 c0 -18 5 -25 20 -25 15 0 20 7 20 25 0 18 -5 25 -20 25
-15 0 -20 -7 -20 -25z m30 -1 c0 -8 -4 -12 -10 -9 -5 3 -10 10 -10 16 0 5 5 9
10 9 6 0 10 -7 10 -16z"/>
<path d="M9962 1238 c-13 -13 2 -38 24 -38 20 0 27 19 14 35 -15 18 -22 19
-38 3z m28 -18 c0 -5 -4 -10 -10 -10 -5 0 -10 5 -10 10 0 6 5 10 10 10 6 0 10
-4 10 -10z"/>
<path d="M1520 1220 c0 -5 5 -10 10 -10 6 0 10 5 10 10 0 6 -4 10 -10 10 -5 0
-10 -4 -10 -10z"/>
<path d="M9928 1207 l22 -24 -22 1 c-32 1 -32 -38 0 -42 17 -3 22 2 22 17 0
24 10 27 30 9 8 -7 -1 4 -19 25 -19 20 -39 37 -45 37 -5 0 0 -10 12 -23z m12
-47 c0 -5 -7 -7 -15 -4 -8 4 -15 8 -15 10 0 2 7 4 15 4 8 0 15 -4 15 -10z"/>
<path d="M9890 1105 c0 -32 26 -44 44 -20 16 22 38 12 29 -13 -5 -13 -3 -14 6
-6 18 16 10 48 -13 52 -11 2 -23 -3 -28 -12 -13 -23 -31 -20 -23 4 4 11 2 20
-4 20 -6 0 -11 -11 -11 -25z"/>
<path d="M9877 1043 c-14 -13 -6 -42 13 -48 24 -8 40 1 40 21 0 8 5 12 11 9 6
-4 8 -13 5 -21 -3 -8 -1 -14 4 -14 14 0 12 34 -2 48 -13 13 -60 16 -71 5z m43
-13 c0 -12 -28 -25 -36 -17 -9 9 6 27 22 27 8 0 14 -5 14 -10z"/>
<path d="M2537 963 c-14 -13 -7 -74 8 -79 21 -8 45 14 45 40 0 34 -34 59 -53
39z m38 -39 c0 -19 -5 -29 -15 -29 -16 0 -25 28 -16 51 10 25 31 10 31 -22z"/>
<path d="M2657 963 c-14 -13 -7 -74 8 -79 21 -8 45 14 45 40 0 34 -34 59 -53
39z m38 -39 c0 -19 -5 -29 -15 -29 -16 0 -25 28 -16 51 10 25 31 10 31 -22z"/>
<path d="M2735 960 c-4 -6 -4 -14 -1 -17 3 -4 6 -1 6 5 0 7 7 12 15 12 10 0
15 -11 15 -35 0 -34 -21 -50 -33 -25 -3 6 -4 5 -3 -2 2 -7 11 -13 22 -13 16 0
19 7 19 40 0 29 -4 41 -17 43 -9 2 -19 -2 -23 -8z"/>
<path d="M2808 944 c-14 -31 -1 -59 28 -59 28 0 31 41 5 50 -26 8 -27 22 -3
28 16 4 16 5 -1 6 -10 0 -23 -10 -29 -25z m40 -37 c2 -10 -3 -17 -12 -17 -18
0 -29 16 -21 31 9 14 29 6 33 -14z"/>
<path d="M2884 956 c-8 -21 2 -46 18 -45 10 0 10 2 1 6 -18 7 -16 43 2 43 26
0 19 -59 -7 -70 -13 -5 -16 -9 -8 -9 29 -1 42 16 38 50 -3 37 -33 53 -44 25z"/>
<path d="M2978 963 c27 -5 27 -9 2 -50 -11 -18 -16 -33 -12 -33 9 0 42 64 42
80 0 6 -12 9 -27 9 -24 -2 -25 -2 -5 -6z"/>
<path d="M3033 954 c-8 -21 13 -42 28 -27 13 13 5 43 -11 43 -6 0 -13 -7 -17
-16z m27 -9 c0 -8 -4 -15 -10 -15 -5 0 -10 7 -10 15 0 8 5 15 10 15 6 0 10 -7
10 -15z"/>
<path d="M2452 873 c-2 -91 -1 -93 21 -92 16 1 17 3 5 6 -14 4 -18 19 -21 91
l-3 87 -2 -92z"/>
<path d="M3103 914 c-8 -21 13 -42 28 -27 13 13 5 43 -11 43 -6 0 -13 -7 -17
-16z m27 -9 c0 -8 -4 -15 -10 -15 -5 0 -10 7 -10 15 0 8 5 15 10 15 6 0 10 -7
10 -15z"/>
<path d="M9850 921 c0 -6 11 -22 24 -37 23 -28 23 -28 30 -6 4 12 15 22 24 22
11 0 13 3 5 11 -14 14 -83 22 -83 10z m50 -15 c0 -11 -19 -15 -25 -6 -3 5 1
10 9 10 9 0 16 -2 16 -4z"/>
<path d="M2504 806 c-8 -35 4 -66 26 -66 22 0 34 31 26 66 -4 15 -14 24 -26
24 -12 0 -22 -9 -26 -24z m41 -22 c0 -19 -5 -29 -15 -29 -16 0 -25 28 -16 51
10 25 31 10 31 -22z"/>
<path d="M2626 814 c-10 -25 -7 -32 14 -39 25 -8 26 -22 3 -29 -15 -4 -15 -5
1 -3 26 3 40 29 32 60 -7 30 -40 37 -50 11z m40 -5 c10 -17 -13 -36 -27 -22
-12 12 -4 33 11 33 5 0 12 -5 16 -11z"/>
<path d="M2707 824 c-13 -14 -7 -42 11 -49 14 -5 15 -4 5 6 -17 17 -16 39 1
39 20 0 25 -11 19 -42 -3 -15 -13 -29 -22 -31 -14 -4 -14 -5 2 -6 24 -1 45 45
30 67 -11 19 -35 27 -46 16z"/>
<path d="M2780 820 c0 -5 7 -7 15 -4 8 4 15 8 15 10 0 2 -7 4 -15 4 -8 0 -15
-4 -15 -10z"/>
<path d="M2780 790 c0 -6 7 -10 15 -10 8 0 15 2 15 4 0 2 -7 6 -15 10 -8 3
-15 1 -15 -4z"/>
<path d="M10132 703 c-2 -100 -1 -103 20 -103 20 0 20 1 5 13 -13 9 -17 32
-20 102 l-3 90 -2 -102z"/>
<path d="M2850 786 c0 -2 7 -6 15 -10 8 -3 15 -1 15 4 0 6 -7 10 -15 10 -8 0
-15 -2 -15 -4z"/>
<path d="M10370 780 c-10 -6 -11 -10 -2 -10 7 0 12 -13 12 -29 0 -16 -6 -32
-12 -34 -7 -3 -4 -6 7 -6 18 -1 20 4 17 37 -5 52 -5 52 -22 42z"/>
<path d="M10481 776 c-7 -8 -11 -27 -9 -43 2 -22 8 -28 28 -28 34 0 34 35 0
52 l-24 12 24 10 c16 6 19 10 9 10 -9 1 -22 -5 -28 -13z m34 -46 c0 -22 -29
-18 -33 3 -3 14 1 18 15 15 10 -2 18 -10 18 -18z"/>
<path d="M10568 783 c26 -5 26 -6 6 -44 -8 -17 -14 -33 -12 -35 2 -2 14 17 26
41 l22 45 -33 -1 c-23 -1 -26 -3 -9 -6z"/>
<path d="M10630 780 c0 -5 7 -7 15 -4 8 4 15 8 15 10 0 2 -7 4 -15 4 -8 0 -15
-4 -15 -10z"/>
<path d="M2860 750 c-13 -8 -12 -10 3 -10 9 0 17 5 17 10 0 12 -1 12 -20 0z"/>
<path d="M10630 750 c0 -6 7 -10 15 -10 8 0 15 2 15 4 0 2 -7 6 -15 10 -8 3
-15 1 -15 -4z"/>
<path d="M10700 746 c0 -2 7 -6 15 -10 8 -3 15 -1 15 4 0 6 -7 10 -15 10 -8 0
-15 -2 -15 -4z"/>
<path d="M10430 710 c0 -5 5 -10 11 -10 5 0 7 5 4 10 -3 6 -8 10 -11 10 -2 0
-4 -4 -4 -10z"/>
<path d="M10710 710 c-13 -8 -12 -10 3 -10 9 0 17 5 17 10 0 12 -1 12 -20 0z"/>
<path d="M10208 643 c25 -5 28 -13 10 -31 -9 -9 -9 -12 0 -12 20 0 13 -28 -8
-33 -17 -4 -16 -4 2 -3 20 1 23 6 23 41 0 36 -3 40 -25 42 -22 1 -22 1 -2 -4z"/>
<path d="M10310 630 c0 -11 4 -20 10 -20 5 0 7 6 4 14 -4 9 3 16 18 19 21 4
20 4 -4 6 -22 1 -28 -4 -28 -19z"/>
<path d="M10400 640 c-10 -6 -11 -10 -2 -10 7 0 12 -13 12 -29 0 -16 -6 -32
-12 -34 -7 -3 -4 -6 7 -6 18 -1 20 4 17 37 -5 52 -5 52 -22 42z"/>
<path d="M10467 644 c-15 -15 -7 -45 11 -42 9 2 17 12 17 22 0 20 -16 31 -28
20z m23 -19 c0 -8 -4 -15 -10 -15 -5 0 -10 7 -10 15 0 8 5 15 10 15 6 0 10 -7
10 -15z"/>
<path d="M10510 609 c-12 -23 -20 -43 -18 -45 3 -2 14 17 26 41 27 56 20 60
-8 4z"/>
<path d="M10347 591 c3 -14 -1 -21 -16 -24 -19 -4 -19 -5 1 -3 16 1 24 8 26
24 2 12 -1 22 -6 22 -6 0 -8 -9 -5 -19z"/>
<path d="M10530 600 c0 -5 7 -7 15 -4 8 4 15 8 15 10 0 2 -7 4 -15 4 -8 0 -15
-4 -15 -10z"/>
<path d="M10530 570 c0 -6 7 -10 15 -10 8 0 15 2 15 4 0 2 -7 6 -15 10 -8 3
-15 1 -15 -4z"/>
</g>
</svg>
